<?xml version="1.0" encoding="UTF-8" standalone="no"?>
<svg
   xmlns:dc="http://purl.org/dc/elements/1.1/"
   xmlns:cc="http://creativecommons.org/ns#"
   xmlns:rdf="http://www.w3.org/1999/02/22-rdf-syntax-ns#"
   xmlns:svg="http://www.w3.org/2000/svg"
   xmlns="http://www.w3.org/2000/svg"
   xmlns:sodipodi="http://sodipodi.sourceforge.net/DTD/sodipodi-0.dtd"
   xmlns:inkscape="http://www.inkscape.org/namespaces/inkscape"
   sodipodi:docname="logo.svg"
   inkscape:version="1.0 (4035a4fb49, 2020-05-01)"
   id="svg8"
   version="1.1"
   viewBox="0 0 68.718666 68.297821"
   height="68.297821mm"
   width="68.718666mm">
  <defs
     id="defs2" />
  <sodipodi:namedview
     inkscape:window-maximized="1"
     inkscape:window-y="-8"
     inkscape:window-x="-8"
     inkscape:window-height="1027"
     inkscape:window-width="1920"
     showgrid="false"
     inkscape:document-rotation="0"
     inkscape:current-layer="layer1"
     inkscape:document-units="mm"
     inkscape:cy="152.26667"
     inkscape:cx="49.180135"
     inkscape:zoom="1.979899"
     inkscape:pageshadow="2"
     inkscape:pageopacity="0.0"
     borderopacity="1.0"
     bordercolor="#666666"
     pagecolor="#ffffff"
     id="base" />
  <metadata
     id="metadata5">
    <rdf:RDF>
      <cc:Work
         rdf:about="">
        <dc:format>image/svg+xml</dc:format>
        <dc:type
           rdf:resource="http://purl.org/dc/dcmitype/StillImage" />
        <dc:title></dc:title>
      </cc:Work>
    </rdf:RDF>
  </metadata>
  <g
     transform="translate(-80.545427,-83.023711)"
     id="layer1"
     inkscape:groupmode="layer"
     inkscape:label="Layer 1">
    <path
       id="Selection #2"
       fill="none"
       stroke="#000000"
       stroke-width="0.282222"
       d="m 80.744355,143.56041 c 0,0 1.12889,0.28222 1.12889,0.28222 0,0 22.202435,-32.73779 22.202435,-32.73779 0,0 5.98029,-8.7489 5.98029,-8.7489 0.52776,-0.74224 1.87678,-2.991553 2.62749,-3.273776 0.762,-0.287867 1.93887,0.299156 0.87771,2.144886 0,0 -4.78367,7.05556 -4.78367,7.05556 0,0 -18.623851,27.37558 -18.623851,27.37558 0,0 -4.79778,7.05555 -4.79778,7.05555 -0.908756,1.33492 -1.755423,2.02918 -1.224845,3.6689 1.492956,-0.63783 2.689579,-1.75825 3.951113,-2.76578 0,0 2.540001,-2.032 2.540001,-2.032 0.612423,-0.49107 2.088446,-1.79776 2.810935,-1.89654 0.857956,-0.11571 1.597379,0.75636 0.756356,1.84856 0,0 -6.107292,5.01509 -6.107292,5.01509 -0.730956,0.5842 -2.060223,1.49578 -2.308579,2.38196 -0.256822,0.60677 -0.03387,1.6002 0,2.24649 0,0 12.750807,0 12.750807,0 0,0 1.543755,-0.2794 1.543755,-0.2794 0,0 1.397,-1.97838 1.397,-1.97838 0,0 2.13925,-4.23334 2.13925,-4.23334 0,0 -6.491117,2.87867 -6.491117,2.87867 -0.745067,0.31327 -1.78929,0.59831 -2.209801,-0.37536 -0.3556,-0.82691 0.476956,-1.36877 1.086556,-1.70744 0,0 5.638802,-2.56258 5.638802,-2.56258 0,0 16.65112,-7.63412 16.65112,-7.63412 0,0 7.62001,-3.42053 7.62001,-3.42053 1.43933,-0.31045 2.22673,1.0922 0.8128,2.07716 0,0 -7.30392,3.40642 -7.30392,3.40642 0,0 4.44783,8.74889 4.44783,8.74889 0,0 2.59644,4.63692 2.59644,4.63692 0,0 2.26907,0.44309 2.26907,0.44309 0,0 20.32001,0 20.32001,0 0,0 -11.76585,-25.1178 -11.76585,-25.1178 0,0 -8.89847,-18.9089 -8.89847,-18.9089 0,0 -3.81847,-8.184445 -3.81847,-8.184445 0,0 -5.34529,-11.288895 -5.34529,-11.288895 -2.05458,-4.470402 -1.63407,-4.509913 -4.32083,-4.515558 0,0 -4.51556,0 -4.51556,0 -2.2606,0.03951 -1.98684,0.928512 -3.17782,3.386669 0,0 -5.04614,10.72445 -5.04614,10.72445 0,0 -14.441314,31.044459 -14.441314,31.044459 0,0 -6.968071,15.24001 -6.968071,15.24001 z M 114.35986,122.8848 c 1.98685,0.079 1.6256,1.85138 0.52211,2.12231 -0.98495,0.23989 -2.22955,-1.12324 -0.52211,-2.12231 z m -5.969,4.85423 c 1.76389,0.42615 1.33491,1.62842 0.26247,2.61337 0,0 -6.7423,5.39892 -6.7423,5.39892 -0.75071,0.55033 -2.41582,1.61149 -2.918176,0.1524 -0.381,-1.10067 1.069626,-2.03765 1.789286,-2.6162 1.66794,-1.34338 5.81096,-5.07436 7.60872,-5.54849 z" />
    <path
       transform="matrix(0.26458333,0,0,0.26458333,80.545427,83.023711)"
       id="path20"
       d="m 20.454673,256.0442 c -0.75389,-1.9646 -0.303634,-6.05784 0.881777,-8.01618 0.766237,-1.26584 6.393452,-6.23466 15.730042,-13.8896 7.995358,-6.55527 14.980441,-12.51472 15.522413,-13.2432 1.478217,-1.98696 1.313835,-4.92422 -0.355967,-6.36053 -1.857353,-1.59762 -4.111928,-1.47777 -7.031531,0.37379 -1.324802,0.84016 -7.562798,5.67014 -13.862213,10.73329 -13.360077,10.73814 -16.630931,12.99534 -17.299894,11.93854 -1.121551,-1.77175 -0.11186,-4.45943 3.742627,-9.96243 1.495848,-2.1356 23.579694,-34.5663 49.075211,-72.06821 25.495518,-37.50191 49.178362,-72.337529 52.628532,-77.412475 3.45017,-5.074946 6.60057,-10.011082 7.00089,-10.969186 1.01492,-2.429043 0.90803,-4.439636 -0.31895,-5.999488 -0.83614,-1.062973 -1.4768,-1.330805 -3.18332,-1.330805 -3.93896,0 2.37788,-8.854714 -74.317877,104.176054 C 8.3344479,223.45321 4.6128883,228.77127 3.4620862,228.61007 2.7723619,228.51346 2.1491858,228.37884 2.0772506,228.31092 1.7439197,227.99619 45.246883,133.86032 90.903986,36.099131 107.16397,1.2831918 106.27961,3.0444638 107.92082,2.208413 c 1.01049,-0.5147565 4.43272,-0.7377839 13.22152,-0.8616518 6.52197,-0.091919 12.59513,-0.028863 13.49592,0.1401258 2.88251,0.540762 4.36829,2.3699167 7.48208,9.211245 1.61728,3.553352 7.13179,15.324727 12.25446,26.158613 5.12268,10.833886 14.14882,30.039412 20.0581,42.678945 5.90929,12.639534 15.34609,32.7542 20.97068,44.69925 16.88159,35.85175 60.65914,129.17747 61.42924,130.95587 l 0.71724,1.65635 -39.28266,-0.15703 c -32.73096,-0.13083 -39.70107,-0.28073 -41.79134,-0.89873 l -2.50867,-0.7417 -4.947,-8.83884 c -4.91704,-8.78532 -20.59277,-39.42373 -20.59277,-40.24884 0,-0.23742 5.8516,-3.15417 13.00356,-6.48165 13.38093,-6.22555 15.99616,-7.85154 16.52878,-10.27655 0.64049,-2.91612 -1.76628,-5.62242 -5.00013,-5.62242 -1.39287,0 -16.74043,6.7942 -55.34186,24.49923 -13.7507,6.30694 -32.728942,14.9815 -42.173869,19.27681 -9.444926,4.29531 -18.01857,8.36162 -19.052542,9.03624 -2.643221,1.72457 -3.648106,3.81771 -2.908588,6.05847 0.75075,2.27479 2.238109,3.25363 4.943904,3.25363 1.697122,0 4.969112,-1.21862 14.239307,-5.3033 6.619727,-2.91681 12.16656,-5.3033 12.326296,-5.3033 0.522708,0 -6.329328,12.78591 -8.980226,16.7571 -1.423649,2.13272 -3.043024,4.05081 -3.598608,4.26244 -0.555584,0.21163 -12.402441,0.46697 -26.32635,0.56743 -23.055412,0.16633 -25.344454,0.109 -25.632621,-0.64195 z m 57.042755,-53.79096 c 2.712432,-1.31307 30.013362,-23.10195 31.418232,-25.0749 1.32609,-1.86232 1.83512,-3.82756 1.4199,-5.4819 -0.38946,-1.55175 -3.03628,-3.26286 -5.05112,-3.26544 -3.06012,-0.004 -10.30216,5.02757 -25.686116,17.8457 -4.937773,4.11423 -9.369817,8.07875 -9.848988,8.81006 -0.479176,0.73132 -0.871226,2.28731 -0.871226,3.45776 0,4.34687 3.865379,6.01006 8.619318,3.70872 z m 54.975392,-44.46948 c 2.60414,-3.09484 1.16082,-6.97874 -2.87477,-7.73582 -2.20841,-0.4143 -4.05857,0.59088 -5.2194,2.83568 -1.65328,3.1971 0.68157,6.45412 4.62675,6.45412 1.79174,0 2.38268,-0.26484 3.46742,-1.55398 z"
       style="fill:#000000;stroke:#000000;stroke-width:0.505076;stroke-opacity:1" />
  </g>
</svg>
