<?xml version="1.0" encoding="UTF-8"?>
<!DOCTYPE svg PUBLIC "-//W3C//DTD SVG 1.1//EN" "http://www.w3.org/Graphics/SVG/1.1/DTD/svg11.dtd">
<!-- Creator: CorelDRAW X6 -->
<svg xmlns="http://www.w3.org/2000/svg" xml:space="preserve" width="210mm" height="297mm" version="1.1" style="shape-rendering:geometricPrecision; text-rendering:geometricPrecision; image-rendering:optimizeQuality; fill-rule:evenodd; clip-rule:evenodd"
viewBox="0 0 21000 29700"
 xmlns:xlink="http://www.w3.org/1999/xlink">
 <defs>
  <style type="text/css">
   <![CDATA[
    .str0 {stroke:#1F1A17;stroke-width:282.22}
    .fil0 {fill:none}
   ]]>
  </style>
 </defs>
 <g id="Layer_x0020_1">
  <metadata id="CorelCorpID_0Corel-Layer"/>
  <g id="_731279232">
  </g>
  <g id="_731279072">
  </g>
  <g id="_733696816">
  </g>
  <g id="_733696656">
  </g>
  <g id="_733696496">
  </g>
  <g id="_733696336">
  </g>
  <g id="_733696176">
  </g>
  <g id="_733696016">
  </g>
  <g id="_730645632">
  </g>
  <g id="_730645472">
  </g>
  <g id="_730645312">
  </g>
  <g id="_730645152">
  </g>
  <g id="_730644992">
  </g>
  <g id="_730644832">
  </g>
  <g id="_733278656">
  </g>
  <g id="_730646976">
   <line class="fil0 str0" x1="9883" y1="15670" x2="9883" y2= "15670" />
   <polygon class="fil0 str0" points="8929,16791 9883,15670 10906,16728 10288,16748 10364,19144 9623,19167 9547,16771 "/>
   <path class="fil0 str0" d="M13883 23767c88,81 225,75 305,-12 81,-88 75,-225 -13,-306 -87,-81 -225,-75 -305,13 -81,88 -75,225 13,305z"/>
   <path class="fil0 str0" d="M15040 15210l8 43 432 10058 -37 2c-1483,78 -2972,33 -4447,-140 -69,-8 -137,-16 -206,-25 -11,-1 -21,-3 -32,-4l-329 -1198 1263 -738 -759 -1502c308,-144 602,-321 877,-532 833,-637 1427,-1520 1831,-2478 220,-523 385,-1069 504,-1623 127,-586 203,-1184 236,-1783l2 -35 36 0c194,3 425,-3 621,-45l0 0z"/>
   <path class="fil0 str0" d="M7839 22844c152,-5 279,114 284,266 5,151 -114,278 -266,283 -172,6 87,901 116,1051 40,8 81,17 121,25 647,133 1299,242 1955,325l-329 -1197 1263 -738 -759 -1502c-54,25 -109,49 -164,72 -302,127 -617,222 -943,287 -295,58 -591,90 -888,99 -79,3 -157,4 -235,3l-403 711c72,354 -21,324 248,315z"/>
   <path class="fil0 str0" d="M7138 22852l-61 -495 465 -672c-396,-38 -788,-114 -1174,-217 -164,-44 -334,54 -378,218 -153,569 -306,1139 -459,1709 -42,154 40,313 189,369 517,194 1039,372 1565,534l-106 -968c-98,-45 -168,-151 -161,-270 5,-86 49,-161 120,-208z"/>
   <path class="fil0 str0" d="M7930 12535c-29,150 70,297 220,326 150,29 297,-70 325,-221 29,-150 -70,-297 -220,-326 -150,-29 -297,71 -325,221z"/>
   <path class="fil0 str0" d="M13263 13246c88,81 225,74 305,-14 81,-88 74,-225 -14,-305 -88,-81 -225,-74 -306,14 -80,88 -73,225 15,305z"/>
   <path class="fil0 str0" d="M14635 4350l498 10052 -37 2c-1552,88 -3110,42 -4653,-146 -1256,-152 -2498,-399 -3718,-730 -155,-42 -251,-192 -224,-350 99,-581 197,-1163 296,-1744 29,-168 188,-282 356,-253 765,129 1546,153 2312,-2 727,-146 1394,-446 1981,-899 830,-640 1421,-1526 1821,-2486 218,-523 380,-1070 497,-1624 124,-587 198,-1186 229,-1785l2 -35 35 0c194,2 388,4 605,0l0 0z"/>
  </g>
 </g>
</svg>
